Coordinates
version=1
nRows=65
nColumns=12
inDegrees=yes

Units are S.I. units (second, meters, Newtons, ...)
Angles are in degrees

endheader
time	SC_y	SC_z	SC_x	AC_y	AC_z	AC_x	GH_y	GH_z	GH_yy	EL_x	PS_y
       0.0              -11.77          31.72          58.27          35.61          -11.4         -6.549           66.8          35.98          99.08          34.44          85.62
   0.03687              -11.78          31.72          58.27          35.61         -11.39         -6.546           66.8          35.99          99.08          34.45          85.62
   0.07374              -11.78          31.72          58.26          35.61         -11.39         -6.544           66.8          35.99          99.08          34.46          85.62
    0.1106              -11.78          31.72          58.26          35.61         -11.39         -6.542           66.8           36.0          99.08          34.47          85.62
    0.1475              -11.79          31.72          58.25          35.61         -11.38         -6.539           66.8          36.01          99.08          34.48          85.62
    0.1844              -11.79          31.72          58.24          35.61         -11.38         -6.536           66.8          36.02          99.08          34.48          85.63
    0.2212               -11.8          31.72          58.23          35.61         -11.38         -6.533           66.8          36.03          99.08          34.49          85.63
    0.2581               -11.8          31.72          58.22           35.6         -11.37          -6.53           66.8          36.04          99.08           34.5          85.63
     0.295              -11.81          31.72          58.22           35.6         -11.37         -6.527           66.8          36.05          99.08          34.52          85.63
    0.3318              -11.81          31.72          58.21           35.6         -11.37         -6.523           66.8          36.06          99.09          34.53          85.63
    0.3687              -11.82          31.72           58.2           35.6         -11.36         -6.519           66.8          36.07          99.09          34.54          85.63
    0.4056              -11.82          31.72          58.18           35.6         -11.36         -6.515           66.8          36.09          99.09          34.55          85.64
    0.4424              -11.83          31.72          58.17           35.6         -11.35          -6.51           66.8           36.1          99.09          34.57          85.64
    0.4793              -11.84          31.72          58.16           35.6         -11.35         -6.505           66.8          36.12          99.09          34.58          85.64
    0.5162              -11.85          31.72          58.15           35.6         -11.34           -6.5          66.81          36.13          99.09           34.6          85.64
    0.5531              -11.86          31.72          58.13           35.6         -11.33         -6.494          66.81          36.15          99.09          34.62          85.65
    0.5899              -11.87          31.71          58.11           35.6         -11.32         -6.488          66.81          36.17          99.09          34.64          85.65
    0.6268              -11.88          31.71           58.1           35.6         -11.32         -6.481          66.81          36.19          99.09          34.66          85.65
    0.6637              -11.89          31.71          58.08          35.59         -11.31         -6.473          66.81          36.22          99.09          34.69          85.66
    0.7005               -11.9          31.71          58.05          35.59          -11.3         -6.465          66.81          36.24          99.09          34.71          85.66
    0.7374              -11.91          31.71          58.03          35.59         -11.29         -6.456          66.81          36.27          99.09          34.74          85.67
    0.7743              -11.93          31.71           58.0          35.59         -11.28         -6.446          66.82           36.3           99.1          34.77          85.67
    0.8111              -11.94          31.71          57.98          35.59         -11.26         -6.435          66.82          36.34           99.1          34.81          85.68
     0.848              -11.96           31.7          57.94          35.58         -11.25         -6.423          66.82          36.38           99.1          34.85          85.68
    0.8849              -11.98           31.7          57.91          35.58         -11.23          -6.41          66.82          36.42           99.1          34.89          85.69
    0.9218              -12.01           31.7          57.87          35.58         -11.22         -6.395          66.83          36.47           99.1          34.94           85.7
    0.9586              -12.03           31.7          57.82          35.58          -11.2         -6.378          66.83          36.52           99.1          34.99           85.7
    0.9955              -12.06          31.69          57.77          35.57         -11.17         -6.359          66.83          36.58          99.11          35.05          85.71
     1.032              -12.09          31.69          57.72          35.57         -11.15         -6.337          66.84          36.65          99.11          35.12          85.72
     1.069              -12.13          31.68          57.65          35.56         -11.12         -6.313          66.84          36.73          99.11           35.2          85.74
     1.106              -12.17          31.68          57.58          35.56         -11.09         -6.285          66.85          36.81          99.12          35.29          85.75
     1.143              -12.22          31.67           57.5          35.55         -11.05         -6.253          66.86          36.91          99.12          35.39          85.77
      1.18              -12.27          31.67           57.4          35.55         -11.01         -6.216          66.86          37.03          99.12          35.51          85.79
     1.217              -12.34          31.66          57.29          35.54         -10.96         -6.173          66.87          37.17          99.13          35.65          85.81
     1.254              -12.41          31.65          57.16          35.53          -10.9         -6.123          66.88          37.32          99.14          35.81          85.83
      1.29               -12.5          31.64           57.0          35.52         -10.83         -6.064          66.89          37.51          99.14           36.0          85.86
     1.327              -12.61          31.63          56.82          35.51         -10.75         -5.994          66.91          37.73          99.15          36.22           85.9
     1.364              -12.73          31.62           56.6          35.49         -10.65          -5.91          66.92           38.0          99.16          36.49          85.94
     1.401              -12.89           31.6          56.33          35.47         -10.53         -5.808          66.95          38.32          99.18          36.82          85.99
     1.438              -13.07          31.58           56.0          35.45         -10.39         -5.684          66.97          38.72          99.19          37.22          86.05
     1.475               -13.3          31.55           55.6          35.42         -10.21          -5.53           67.0           39.2          99.21          37.71          86.13
     1.512              -13.59          31.52           55.1          35.39         -9.984         -5.339          67.04          39.81          99.24          38.32          86.22
     1.549              -13.95          31.48          54.46          35.34         -9.702         -5.098          67.09          40.57          99.27          39.09          86.34
     1.585              -14.42          31.43          53.66          35.28         -9.344         -4.791          67.15          41.54          99.31          40.08           86.5
     1.622               -15.0          31.36          52.63          35.21         -8.886         -4.399          67.23          42.78          99.36          41.33          86.69
     1.659              -15.76          31.28          51.31          35.12         -8.299         -3.896          67.33          44.37          99.42          42.95          86.95
     1.696              -16.73          31.17          49.62           35.0         -7.548         -3.253          67.46          46.41           99.5          45.01          87.27
     1.733              -17.94          31.03          47.49          34.85         -6.604         -2.444          67.63          48.97           99.6           47.6          87.67
      1.77              -19.42          30.87           44.9          34.67         -5.454         -1.459          67.83          52.09          99.73          50.75          88.16
     1.807              -21.14          30.68           41.9          34.46         -4.121        -0.3166          68.06           55.7          99.88          54.41          88.74
     1.844               -23.0          30.47          38.66          34.23         -2.677           0.92          68.31          59.61          100.0          58.38          89.35
      1.88              -24.86          30.26          35.41          34.01         -1.234          2.157          68.56          63.53          100.2          62.34          89.97
     1.917              -26.57          30.07          32.41           33.8        0.09929          3.299          68.79          67.14          100.3           66.0          90.54
     1.954              -28.06           29.9          29.82          33.61          1.249          4.284          68.99          70.26          100.5          69.15          91.04
     1.991              -29.27          29.77           27.7          33.47          2.193          5.093          69.15          72.82          100.6          71.75          91.44
     2.028              -30.24          29.66          26.01          33.35          2.944          5.736          69.28          74.85          100.6          73.81          91.76
     2.065              -30.99          29.57          24.69          33.26          3.532          6.239          69.39          76.44          100.7          75.42          92.01
     2.102              -31.58          29.51          23.66          33.18          3.989          6.631          69.46          77.69          100.8          76.68          92.21
     2.138              -32.04          29.46          22.85          33.13          4.347          6.938          69.53          78.66          100.8          77.66          92.36
     2.175              -32.41          29.42          22.22          33.08          4.629          7.179          69.58          79.42          100.8          78.43          92.48
     2.212              -32.69          29.38          21.71          33.05          4.852           7.37          69.61          80.02          100.9          79.04          92.58
     2.249              -32.93          29.36          21.31          33.02          5.031          7.524          69.65          80.51          100.9          79.53          92.66
     2.286              -33.11          29.34          20.98           33.0          5.176          7.648          69.67           80.9          100.9          79.93          92.72
     2.323              -33.27          29.32          20.72          32.98          5.295           7.75          69.69          81.23          100.9          80.26          92.77
      2.36              -33.39          29.31           20.5          32.96          5.393          7.834          69.71          81.49          100.9          80.53          92.81
